<svg width="204" height="80" viewBox="0 0 204 80" fill="none" xmlns="http://www.w3.org/2000/svg">
<g clip-path="url(#clip0_331_49)">
<path d="M141.425 71.4042L145.522 73.6973L144.606 69.0928L148.053 65.9045L143.391 65.3518L141.425 61.0888V71.4042ZM141.425 73.6153L134.621 77.4238L136.14 69.7758L130.415 64.4816L138.158 63.5632L141.425 56.4824L144.691 63.5632L152.435 64.4816L146.709 69.7758L148.229 77.4238L141.425 73.6153Z" fill="#F1B90B"/>
</g>
<g clip-path="url(#clip1_331_49)">
<path d="M11.7707 73.6153L4.96678 77.4238L6.48616 69.7758L0.760742 64.4816L8.50429 63.5632L11.7707 56.4824L15.0371 63.5632L22.7807 64.4816L17.0553 69.7758L18.5747 77.4238L11.7707 73.6153Z" fill="#F1B90B"/>
</g>
<g clip-path="url(#clip2_331_49)">
<path d="M44.1845 73.6153L37.3806 77.4238L38.9 69.7758L33.1746 64.4816L40.9181 63.5632L44.1845 56.4824L47.451 63.5632L55.1945 64.4816L49.4691 69.7758L50.9885 77.4238L44.1845 73.6153Z" fill="#F1B90B"/>
</g>
<g clip-path="url(#clip3_331_49)">
<path d="M76.5976 73.6153L69.7937 77.4238L71.3131 69.7758L65.5876 64.4816L73.3312 63.5632L76.5976 56.4824L79.8641 63.5632L87.6076 64.4816L81.8822 69.7758L83.4016 77.4238L76.5976 73.6153Z" fill="#F1B90B"/>
</g>
<g clip-path="url(#clip4_331_49)">
<path d="M109.011 73.6153L102.207 77.4238L103.727 69.7758L98.0012 64.4816L105.745 63.5632L109.011 56.4824L112.278 63.5632L120.021 64.4816L114.296 69.7758L115.815 77.4238L109.011 73.6153Z" fill="#F1B90B"/>
</g>
<path d="M0.974336 28L8.71434 7H12.1943L19.8743 28H16.5143L14.7143 22.87H6.13434L4.33434 28H0.974336ZM7.03434 20.35H13.8143L10.4243 10.78L7.03434 20.35ZM22.6829 28V6.4H25.8629V15.52C26.3629 14.66 27.0529 13.99 27.9329 13.51C28.8329 13.01 29.8229 12.76 30.9029 12.76C32.6829 12.76 34.0829 13.32 35.1029 14.44C36.1229 15.56 36.6329 17.23 36.6329 19.45V28H33.4829V19.78C33.4829 16.9 32.3329 15.46 30.0329 15.46C28.8329 15.46 27.8329 15.88 27.0329 16.72C26.2529 17.56 25.8629 18.76 25.8629 20.32V28H22.6829ZM40.3782 28V13.12H43.1982L43.4682 15.22C43.9482 14.46 44.5782 13.86 45.3582 13.42C46.1582 12.98 47.0782 12.76 48.1182 12.76C50.4782 12.76 52.1182 13.69 53.0382 15.55C53.5782 14.69 54.2982 14.01 55.1982 13.51C56.1182 13.01 57.1082 12.76 58.1682 12.76C60.0282 12.76 61.4882 13.32 62.5482 14.44C63.6082 15.56 64.1382 17.23 64.1382 19.45V28H60.9582V19.78C60.9582 16.9 59.8582 15.46 57.6582 15.46C56.5382 15.46 55.6182 15.88 54.8982 16.72C54.1982 17.56 53.8482 18.76 53.8482 20.32V28H50.6682V19.78C50.6682 16.9 49.5582 15.46 47.3382 15.46C46.2382 15.46 45.3282 15.88 44.6082 16.72C43.9082 17.56 43.5582 18.76 43.5582 20.32V28H40.3782ZM74.8186 28.36C73.3586 28.36 72.0586 28.04 70.9186 27.4C69.7986 26.74 68.9186 25.83 68.2786 24.67C67.6386 23.51 67.3186 22.16 67.3186 20.62C67.3186 19.06 67.6286 17.69 68.2486 16.51C68.8886 15.33 69.7686 14.41 70.8886 13.75C72.0286 13.09 73.3486 12.76 74.8486 12.76C76.3086 12.76 77.5786 13.09 78.6586 13.75C79.7386 14.39 80.5786 15.25 81.1786 16.33C81.7786 17.41 82.0786 18.6 82.0786 19.9C82.0786 20.1 82.0686 20.32 82.0486 20.56C82.0486 20.78 82.0386 21.03 82.0186 21.31H70.4386C70.5386 22.75 71.0086 23.85 71.8486 24.61C72.7086 25.35 73.6986 25.72 74.8186 25.72C75.7186 25.72 76.4686 25.52 77.0686 25.12C77.6886 24.7 78.1486 24.14 78.4486 23.44H81.6286C81.2286 24.84 80.4286 26.01 79.2286 26.95C78.0486 27.89 76.5786 28.36 74.8186 28.36ZM74.8186 15.37C73.7586 15.37 72.8186 15.69 71.9986 16.33C71.1786 16.95 70.6786 17.89 70.4986 19.15H78.8986C78.8386 17.99 78.4286 17.07 77.6686 16.39C76.9086 15.71 75.9586 15.37 74.8186 15.37ZM92.1582 28.36C90.7182 28.36 89.4482 28.02 88.3482 27.34C87.2482 26.66 86.3882 25.73 85.7682 24.55C85.1482 23.37 84.8382 22.03 84.8382 20.53C84.8382 19.03 85.1482 17.7 85.7682 16.54C86.3882 15.36 87.2482 14.44 88.3482 13.78C89.4682 13.1 90.7482 12.76 92.1882 12.76C93.3682 12.76 94.3982 12.99 95.2782 13.45C96.1782 13.91 96.8782 14.56 97.3782 15.4V6.4H100.558V28H97.7082L97.3782 25.69C96.8982 26.39 96.2382 27.01 95.3982 27.55C94.5582 28.09 93.4782 28.36 92.1582 28.36ZM92.7282 25.6C94.0882 25.6 95.1982 25.13 96.0582 24.19C96.9382 23.25 97.3782 22.04 97.3782 20.56C97.3782 19.06 96.9382 17.85 96.0582 16.93C95.1982 15.99 94.0882 15.52 92.7282 15.52C91.3682 15.52 90.2482 15.99 89.3682 16.93C88.4882 17.85 88.0482 19.06 88.0482 20.56C88.0482 21.54 88.2482 22.41 88.6482 23.17C89.0482 23.93 89.5982 24.53 90.2982 24.97C91.0182 25.39 91.8282 25.6 92.7282 25.6ZM112.246 28V7H115.426V16H125.596V7H128.776V28H125.596V18.61H115.426V28H112.246ZM132.927 28V13.12H135.777L136.047 15.94C136.567 14.96 137.287 14.19 138.207 13.63C139.147 13.05 140.277 12.76 141.597 12.76V16.09H140.727C139.847 16.09 139.057 16.24 138.357 16.54C137.677 16.82 137.127 17.31 136.707 18.01C136.307 18.69 136.107 19.64 136.107 20.86V28H132.927ZM146.123 10.3C145.523 10.3 145.023 10.12 144.623 9.76C144.243 9.38 144.053 8.91 144.053 8.35C144.053 7.79 144.243 7.33 144.623 6.97C145.023 6.59 145.523 6.4 146.123 6.4C146.723 6.4 147.213 6.59 147.593 6.97C147.993 7.33 148.193 7.79 148.193 8.35C148.193 8.91 147.993 9.38 147.593 9.76C147.213 10.12 146.723 10.3 146.123 10.3ZM144.533 28V13.12H147.713V28H144.533ZM158.691 28.36C157.251 28.36 155.981 28.02 154.881 27.34C153.781 26.66 152.921 25.73 152.301 24.55C151.681 23.37 151.371 22.03 151.371 20.53C151.371 19.03 151.681 17.7 152.301 16.54C152.921 15.36 153.781 14.44 154.881 13.78C156.001 13.1 157.281 12.76 158.721 12.76C159.901 12.76 160.931 12.99 161.811 13.45C162.711 13.91 163.411 14.56 163.911 15.4V6.4H167.091V28H164.241L163.911 25.69C163.431 26.39 162.771 27.01 161.931 27.55C161.091 28.09 160.011 28.36 158.691 28.36ZM159.261 25.6C160.621 25.6 161.731 25.13 162.591 24.19C163.471 23.25 163.911 22.04 163.911 20.56C163.911 19.06 163.471 17.85 162.591 16.93C161.731 15.99 160.621 15.52 159.261 15.52C157.901 15.52 156.781 15.99 155.901 16.93C155.021 17.85 154.581 19.06 154.581 20.56C154.581 21.54 154.781 22.41 155.181 23.17C155.581 23.93 156.131 24.53 156.831 24.97C157.551 25.39 158.361 25.6 159.261 25.6ZM178.061 28.36C176.641 28.36 175.361 28.04 174.221 27.4C173.101 26.74 172.211 25.83 171.551 24.67C170.891 23.49 170.561 22.12 170.561 20.56C170.561 19 170.891 17.64 171.551 16.48C172.231 15.3 173.141 14.39 174.281 13.75C175.421 13.09 176.691 12.76 178.091 12.76C179.511 12.76 180.781 13.09 181.901 13.75C183.041 14.39 183.941 15.3 184.601 16.48C185.281 17.64 185.621 19 185.621 20.56C185.621 22.12 185.281 23.49 184.601 24.67C183.941 25.83 183.041 26.74 181.901 27.4C180.761 28.04 179.481 28.36 178.061 28.36ZM178.061 25.63C178.821 25.63 179.521 25.44 180.161 25.06C180.821 24.68 181.351 24.12 181.751 23.38C182.151 22.62 182.351 21.68 182.351 20.56C182.351 19.44 182.151 18.51 181.751 17.77C181.371 17.01 180.851 16.44 180.191 16.06C179.551 15.68 178.851 15.49 178.091 15.49C177.331 15.49 176.621 15.68 175.961 16.06C175.321 16.44 174.801 17.01 174.401 17.77C174.001 18.51 173.801 19.44 173.801 20.56C173.801 21.68 174.001 22.62 174.401 23.38C174.801 24.12 175.321 24.68 175.961 25.06C176.601 25.44 177.301 25.63 178.061 25.63ZM189.54 34.6L193.11 26.77H192.24L186.36 13.12H189.81L194.37 24.13L199.14 13.12H202.5L192.9 34.6H189.54Z" fill="#222222"/>
<defs>
<clipPath id="clip0_331_49">
<rect width="23.1525" height="23.1525" fill="white" transform="translate(129.848 56)"/>
</clipPath>
<clipPath id="clip1_331_49">
<rect width="23.1525" height="23.1525" fill="white" transform="translate(0.194336 56)"/>
</clipPath>
<clipPath id="clip2_331_49">
<rect width="23.1525" height="23.1525" fill="white" transform="translate(32.6082 56)"/>
</clipPath>
<clipPath id="clip3_331_49">
<rect width="23.1525" height="23.1525" fill="white" transform="translate(65.0212 56)"/>
</clipPath>
<clipPath id="clip4_331_49">
<rect width="23.1525" height="23.1525" fill="white" transform="translate(97.4348 56)"/>
</clipPath>
</defs>
</svg>
